<?xml version="1.0" encoding="utf-8"?>
<!-- Generator: Adobe Illustrator 27.3.1, SVG Export Plug-In . SVG Version: 6.00 Build 0)  -->
<svg version="1.1" xmlns="http://www.w3.org/2000/svg" xmlns:xlink="http://www.w3.org/1999/xlink" x="0px" y="0px"
	 viewBox="0 0 1000 1000" style="enable-background:new 0 0 1000 1000;" xml:space="preserve">
<style type="text/css">
	.st0{display:none;}
	.st1{display:inline;}
	.st2{clip-path:url(#SVGID_00000169526551030283791880000010413925062808937403_);}
	.st3{fill:none;stroke:#FFFFFF;stroke-width:12.7279;stroke-miterlimit:10;}
</style>
<g id="Слой_1" class="st0">
	<g class="st1">
		<rect width="1000" height="1000"/>
	</g>
</g>
<g id="Слой_2">
	<g>
		<defs>
			<rect id="SVGID_1_" width="1000" height="1000"/>
		</defs>
		<clipPath id="SVGID_00000096034028850984086000000012132786659033639598_">
			<use xlink:href="#SVGID_1_"  style="overflow:visible;"/>
		</clipPath>
		<g style="clip-path:url(#SVGID_00000096034028850984086000000012132786659033639598_);">
			
				<rect x="-207.11" y="-207.11" transform="matrix(0.7071 -0.7071 0.7071 0.7071 -207.1068 500)" class="st3" width="1414.21" height="1414.21"/>
			<line class="st3" x1="1444.44" y1="444.44" x2="444.44" y2="1444.44"/>
			<line class="st3" x1="1388.89" y1="388.89" x2="388.89" y2="1388.89"/>
			<line class="st3" x1="1333.33" y1="333.33" x2="333.33" y2="1333.33"/>
			<line class="st3" x1="1277.78" y1="277.78" x2="277.78" y2="1277.78"/>
			<line class="st3" x1="1222.22" y1="222.22" x2="222.22" y2="1222.22"/>
			<line class="st3" x1="1166.67" y1="166.67" x2="166.67" y2="1166.67"/>
			<line class="st3" x1="1111.11" y1="111.11" x2="111.11" y2="1111.11"/>
			<line class="st3" x1="1055.56" y1="55.56" x2="55.56" y2="1055.56"/>
			<line class="st3" x1="1000" y1="0" x2="0" y2="1000"/>
			<line class="st3" x1="944.44" y1="-55.56" x2="-55.56" y2="944.44"/>
			<line class="st3" x1="888.89" y1="-111.11" x2="-111.11" y2="888.89"/>
			<line class="st3" x1="833.33" y1="-166.67" x2="-166.67" y2="833.33"/>
			<line class="st3" x1="777.78" y1="-222.22" x2="-222.22" y2="777.78"/>
			<line class="st3" x1="722.22" y1="-277.78" x2="-277.78" y2="722.22"/>
			<line class="st3" x1="666.67" y1="-333.33" x2="-333.33" y2="666.67"/>
			<line class="st3" x1="611.11" y1="-388.89" x2="-388.89" y2="611.11"/>
			<line class="st3" x1="555.56" y1="-444.44" x2="-444.44" y2="555.56"/>
		</g>
	</g>
</g>
</svg>
